<mxfile host="app.diagrams.net" modified="2022-12-02T12:16:03.491Z" agent="5.0 (X11)" etag="ks7INpvdWm8zvni1dCMx" version="20.6.0" type="github">
  <diagram id="C5RBs43oDa-KdzZeNtuy" name="Page-1">
    <mxGraphModel dx="868" dy="432" grid="1" gridSize="10" guides="1" tooltips="1" connect="1" arrows="1" fold="1" page="1" pageScale="1" pageWidth="827" pageHeight="1169" math="0" shadow="0">
      <root>
        <mxCell id="WIyWlLk6GJQsqaUBKTNV-0" />
        <mxCell id="WIyWlLk6GJQsqaUBKTNV-1" parent="WIyWlLk6GJQsqaUBKTNV-0" />
        <mxCell id="WIyWlLk6GJQsqaUBKTNV-2" value="" style="rounded=1;html=1;jettySize=auto;orthogonalLoop=1;fontSize=17;endArrow=block;endFill=1;endSize=8;strokeWidth=1;shadow=1;labelBackgroundColor=default;edgeStyle=orthogonalEdgeStyle;startArrow=none;startFill=0;" parent="WIyWlLk6GJQsqaUBKTNV-1" source="WIyWlLk6GJQsqaUBKTNV-3" target="WIyWlLk6GJQsqaUBKTNV-6" edge="1">
          <mxGeometry relative="1" as="geometry" />
        </mxCell>
        <mxCell id="WIyWlLk6GJQsqaUBKTNV-3" value="&lt;b&gt; Client request&lt;/b&gt;" style="rounded=1;whiteSpace=wrap;html=1;fontSize=12;glass=0;strokeWidth=1;shadow=0;fillColor=#dae8fc;strokeColor=#6c8ebf;" parent="WIyWlLk6GJQsqaUBKTNV-1" vertex="1">
          <mxGeometry x="155" y="100" width="120" height="40" as="geometry" />
        </mxCell>
        <object label="T" T="T" id="WIyWlLk6GJQsqaUBKTNV-4">
          <mxCell style="rounded=0;jettySize=auto;orthogonalLoop=1;fontSize=17;endArrow=block;endFill=0;endSize=8;strokeWidth=1;shadow=1;labelBackgroundColor=none;edgeStyle=orthogonalEdgeStyle;html=1;" parent="WIyWlLk6GJQsqaUBKTNV-1" source="WIyWlLk6GJQsqaUBKTNV-6" target="WIyWlLk6GJQsqaUBKTNV-10" edge="1">
            <mxGeometry y="-35" relative="1" as="geometry">
              <mxPoint as="offset" />
              <Array as="points">
                <mxPoint x="215" y="260" />
                <mxPoint x="215" y="260" />
              </Array>
            </mxGeometry>
          </mxCell>
        </object>
        <mxCell id="cjhWtTej6P78Ce4wvOgb-6" style="edgeStyle=orthogonalEdgeStyle;rounded=0;orthogonalLoop=1;jettySize=auto;html=1;exitX=1;exitY=0.5;exitDx=0;exitDy=0;shadow=1;fontSize=17;entryX=0;entryY=0.5;entryDx=0;entryDy=0;labelBackgroundColor=none;endArrow=block;endFill=0;endSize=8;strokeWidth=1;" edge="1" parent="WIyWlLk6GJQsqaUBKTNV-1" source="WIyWlLk6GJQsqaUBKTNV-6" target="WIyWlLk6GJQsqaUBKTNV-7">
          <mxGeometry relative="1" as="geometry">
            <mxPoint x="275" y="210" as="targetPoint" />
          </mxGeometry>
        </mxCell>
        <mxCell id="WIyWlLk6GJQsqaUBKTNV-6" value="Type == request" style="rhombus;whiteSpace=wrap;html=1;shadow=0;fontFamily=Helvetica;fontSize=12;align=center;strokeWidth=1;spacing=6;spacingTop=-4;fillColor=#fff2cc;strokeColor=#d6b656;" parent="WIyWlLk6GJQsqaUBKTNV-1" vertex="1">
          <mxGeometry x="170" y="170" width="90" height="80" as="geometry" />
        </mxCell>
        <mxCell id="WIyWlLk6GJQsqaUBKTNV-7" value="&lt;b&gt;ERROR&lt;/b&gt;" style="rounded=1;whiteSpace=wrap;html=1;fontSize=12;glass=0;strokeWidth=1;shadow=0;fillColor=#f8cecc;strokeColor=#b85450;" parent="WIyWlLk6GJQsqaUBKTNV-1" vertex="1">
          <mxGeometry x="310" y="190" width="120" height="40" as="geometry" />
        </mxCell>
        <mxCell id="cjhWtTej6P78Ce4wvOgb-22" style="edgeStyle=orthogonalEdgeStyle;rounded=0;orthogonalLoop=1;jettySize=auto;html=1;exitX=0.5;exitY=1;exitDx=0;exitDy=0;entryX=0.5;entryY=0;entryDx=0;entryDy=0;shadow=1;fontSize=17;labelBackgroundColor=none;endArrow=block;endFill=0;endSize=8;strokeWidth=1;" edge="1" parent="WIyWlLk6GJQsqaUBKTNV-1" source="WIyWlLk6GJQsqaUBKTNV-10" target="cjhWtTej6P78Ce4wvOgb-19">
          <mxGeometry relative="1" as="geometry" />
        </mxCell>
        <mxCell id="WIyWlLk6GJQsqaUBKTNV-10" value="Item exist in cache" style="rhombus;whiteSpace=wrap;html=1;shadow=0;fontFamily=Helvetica;fontSize=12;align=center;strokeWidth=1;spacing=6;spacingTop=-4;fillColor=#ffe6cc;strokeColor=#d79b00;" parent="WIyWlLk6GJQsqaUBKTNV-1" vertex="1">
          <mxGeometry x="165" y="290" width="100" height="80" as="geometry" />
        </mxCell>
        <mxCell id="cjhWtTej6P78Ce4wvOgb-40" style="edgeStyle=none;rounded=1;orthogonalLoop=1;jettySize=auto;html=1;shadow=1;strokeWidth=1;fontSize=17;startArrow=none;startFill=0;endArrow=block;endFill=1;entryX=0.5;entryY=0;entryDx=0;entryDy=0;" edge="1" parent="WIyWlLk6GJQsqaUBKTNV-1" source="WIyWlLk6GJQsqaUBKTNV-12" target="cjhWtTej6P78Ce4wvOgb-41">
          <mxGeometry relative="1" as="geometry">
            <mxPoint x="407.63636363636374" y="410" as="targetPoint" />
            <Array as="points">
              <mxPoint x="410" y="380" />
              <mxPoint x="400" y="380" />
            </Array>
          </mxGeometry>
        </mxCell>
        <mxCell id="WIyWlLk6GJQsqaUBKTNV-12" value="&lt;div&gt;&lt;b&gt;1.Send client request to server &lt;br&gt;&lt;/b&gt;&lt;/div&gt;&lt;div&gt;&lt;b&gt;2.gets Response from server&lt;br&gt;&lt;/b&gt;&lt;/div&gt;" style="rounded=1;whiteSpace=wrap;html=1;fontSize=12;glass=0;strokeWidth=1;shadow=0;fillColor=#dae8fc;strokeColor=#6c8ebf;" parent="WIyWlLk6GJQsqaUBKTNV-1" vertex="1">
          <mxGeometry x="320" y="290" width="200" height="70" as="geometry" />
        </mxCell>
        <mxCell id="cjhWtTej6P78Ce4wvOgb-0" value="F" style="text;html=1;align=center;verticalAlign=middle;resizable=0;points=[];autosize=1;strokeColor=none;fillColor=none;fontSize=17;" vertex="1" parent="WIyWlLk6GJQsqaUBKTNV-1">
          <mxGeometry x="270" y="170" width="30" height="30" as="geometry" />
        </mxCell>
        <mxCell id="cjhWtTej6P78Ce4wvOgb-8" style="edgeStyle=orthogonalEdgeStyle;rounded=0;orthogonalLoop=1;jettySize=auto;html=1;exitX=1;exitY=0.5;exitDx=0;exitDy=0;shadow=1;fontSize=17;entryX=0;entryY=0.5;entryDx=0;entryDy=0;labelBackgroundColor=none;endArrow=block;endFill=0;endSize=8;strokeWidth=1;" edge="1" parent="WIyWlLk6GJQsqaUBKTNV-1" source="WIyWlLk6GJQsqaUBKTNV-10">
          <mxGeometry relative="1" as="geometry">
            <mxPoint x="270" y="330" as="sourcePoint" />
            <mxPoint x="320" y="330" as="targetPoint" />
          </mxGeometry>
        </mxCell>
        <mxCell id="cjhWtTej6P78Ce4wvOgb-9" value="F" style="text;html=1;align=center;verticalAlign=middle;resizable=0;points=[];autosize=1;strokeColor=none;fillColor=none;fontSize=17;" vertex="1" parent="WIyWlLk6GJQsqaUBKTNV-1">
          <mxGeometry x="270" y="290" width="30" height="30" as="geometry" />
        </mxCell>
        <mxCell id="cjhWtTej6P78Ce4wvOgb-24" style="edgeStyle=orthogonalEdgeStyle;rounded=0;orthogonalLoop=1;jettySize=auto;html=1;exitX=0.5;exitY=1;exitDx=0;exitDy=0;entryX=0.5;entryY=0;entryDx=0;entryDy=0;shadow=1;fontSize=17;labelBackgroundColor=none;endArrow=block;endFill=0;endSize=8;strokeWidth=1;" edge="1" parent="WIyWlLk6GJQsqaUBKTNV-1" source="cjhWtTej6P78Ce4wvOgb-19" target="cjhWtTej6P78Ce4wvOgb-23">
          <mxGeometry relative="1" as="geometry" />
        </mxCell>
        <mxCell id="cjhWtTej6P78Ce4wvOgb-33" style="edgeStyle=orthogonalEdgeStyle;rounded=0;orthogonalLoop=1;jettySize=auto;html=1;shadow=1;fontSize=17;entryX=0;entryY=1;entryDx=0;entryDy=0;labelBackgroundColor=none;endArrow=block;endFill=0;endSize=8;strokeWidth=1;" edge="1" parent="WIyWlLk6GJQsqaUBKTNV-1" source="cjhWtTej6P78Ce4wvOgb-19" target="WIyWlLk6GJQsqaUBKTNV-12">
          <mxGeometry relative="1" as="geometry">
            <mxPoint x="330" y="400" as="targetPoint" />
          </mxGeometry>
        </mxCell>
        <mxCell id="cjhWtTej6P78Ce4wvOgb-19" value="&lt;div&gt;Cache control &lt;br&gt;&lt;/div&gt;&lt;div&gt;&amp;gt; 0&lt;br&gt;&lt;/div&gt;" style="rhombus;whiteSpace=wrap;html=1;shadow=0;fontFamily=Helvetica;fontSize=12;align=center;strokeWidth=1;spacing=6;spacingTop=-4;fillColor=#ffe6cc;strokeColor=#d79b00;" vertex="1" parent="WIyWlLk6GJQsqaUBKTNV-1">
          <mxGeometry x="165" y="410" width="100" height="80" as="geometry" />
        </mxCell>
        <mxCell id="cjhWtTej6P78Ce4wvOgb-26" style="edgeStyle=orthogonalEdgeStyle;rounded=0;orthogonalLoop=1;jettySize=auto;html=1;entryX=0.5;entryY=0;entryDx=0;entryDy=0;shadow=1;fontSize=17;labelBackgroundColor=none;endArrow=block;endFill=0;endSize=8;strokeWidth=1;" edge="1" parent="WIyWlLk6GJQsqaUBKTNV-1" source="cjhWtTej6P78Ce4wvOgb-23" target="cjhWtTej6P78Ce4wvOgb-25">
          <mxGeometry relative="1" as="geometry" />
        </mxCell>
        <mxCell id="cjhWtTej6P78Ce4wvOgb-36" style="edgeStyle=orthogonalEdgeStyle;rounded=0;orthogonalLoop=1;jettySize=auto;html=1;exitX=1;exitY=0.5;exitDx=0;exitDy=0;shadow=1;fontSize=17;startArrow=none;startFill=0;strokeWidth=1;endArrow=none;endFill=0;" edge="1" parent="WIyWlLk6GJQsqaUBKTNV-1" source="cjhWtTej6P78Ce4wvOgb-23">
          <mxGeometry relative="1" as="geometry">
            <mxPoint x="320" y="450" as="targetPoint" />
          </mxGeometry>
        </mxCell>
        <mxCell id="cjhWtTej6P78Ce4wvOgb-23" value="&lt;div&gt;&lt;br&gt;&lt;/div&gt;&lt;div&gt;Time is Fresh&lt;br&gt;&lt;/div&gt;" style="rhombus;whiteSpace=wrap;html=1;shadow=0;fontFamily=Helvetica;fontSize=12;align=center;strokeWidth=1;spacing=6;spacingTop=-4;fillColor=#ffe6cc;strokeColor=#d79b00;" vertex="1" parent="WIyWlLk6GJQsqaUBKTNV-1">
          <mxGeometry x="165" y="530" width="100" height="70" as="geometry" />
        </mxCell>
        <mxCell id="cjhWtTej6P78Ce4wvOgb-25" value="&lt;div&gt;&lt;b&gt;Send item&lt;/b&gt;&lt;/div&gt;&lt;div&gt;&lt;b&gt;to client&lt;/b&gt;&lt;br&gt;&lt;/div&gt;" style="rounded=1;whiteSpace=wrap;html=1;fontSize=12;glass=0;strokeWidth=1;shadow=0;fillColor=#dae8fc;strokeColor=#6c8ebf;" vertex="1" parent="WIyWlLk6GJQsqaUBKTNV-1">
          <mxGeometry x="155" y="640" width="120" height="40" as="geometry" />
        </mxCell>
        <mxCell id="cjhWtTej6P78Ce4wvOgb-29" value="T" style="text;html=1;strokeColor=none;fillColor=none;align=center;verticalAlign=middle;whiteSpace=wrap;rounded=0;fontSize=17;" vertex="1" parent="WIyWlLk6GJQsqaUBKTNV-1">
          <mxGeometry x="155" y="370" width="60" height="30" as="geometry" />
        </mxCell>
        <mxCell id="cjhWtTej6P78Ce4wvOgb-30" value="T" style="text;html=1;strokeColor=none;fillColor=none;align=center;verticalAlign=middle;whiteSpace=wrap;rounded=0;fontSize=17;" vertex="1" parent="WIyWlLk6GJQsqaUBKTNV-1">
          <mxGeometry x="155" y="490" width="60" height="30" as="geometry" />
        </mxCell>
        <mxCell id="cjhWtTej6P78Ce4wvOgb-31" value="T" style="text;html=1;strokeColor=none;fillColor=none;align=center;verticalAlign=middle;whiteSpace=wrap;rounded=0;fontSize=17;" vertex="1" parent="WIyWlLk6GJQsqaUBKTNV-1">
          <mxGeometry x="150" y="600" width="65" height="30" as="geometry" />
        </mxCell>
        <mxCell id="cjhWtTej6P78Ce4wvOgb-34" value="F" style="text;html=1;align=center;verticalAlign=middle;resizable=0;points=[];autosize=1;strokeColor=none;fillColor=none;fontSize=17;" vertex="1" parent="WIyWlLk6GJQsqaUBKTNV-1">
          <mxGeometry x="270" y="412" width="30" height="30" as="geometry" />
        </mxCell>
        <mxCell id="cjhWtTej6P78Ce4wvOgb-38" value="F" style="text;html=1;align=center;verticalAlign=middle;resizable=0;points=[];autosize=1;strokeColor=none;fillColor=none;fontSize=17;" vertex="1" parent="WIyWlLk6GJQsqaUBKTNV-1">
          <mxGeometry x="265" y="510" width="30" height="30" as="geometry" />
        </mxCell>
        <mxCell id="cjhWtTej6P78Ce4wvOgb-53" style="edgeStyle=none;rounded=0;orthogonalLoop=1;jettySize=auto;html=1;exitX=0.5;exitY=1;exitDx=0;exitDy=0;entryX=0.5;entryY=0;entryDx=0;entryDy=0;shadow=1;strokeWidth=1;fontSize=17;startArrow=none;startFill=0;endArrow=block;endFill=0;labelBackgroundColor=none;endSize=8;" edge="1" parent="WIyWlLk6GJQsqaUBKTNV-1" source="cjhWtTej6P78Ce4wvOgb-41" target="cjhWtTej6P78Ce4wvOgb-42">
          <mxGeometry relative="1" as="geometry" />
        </mxCell>
        <mxCell id="cjhWtTej6P78Ce4wvOgb-57" style="edgeStyle=none;rounded=0;orthogonalLoop=1;jettySize=auto;html=1;exitX=0.5;exitY=1;exitDx=0;exitDy=0;shadow=1;strokeWidth=1;fontSize=17;startArrow=none;startFill=0;endArrow=block;endFill=0;labelBackgroundColor=none;endSize=8;entryX=1;entryY=0;entryDx=0;entryDy=0;" edge="1" parent="WIyWlLk6GJQsqaUBKTNV-1" source="cjhWtTej6P78Ce4wvOgb-41" target="cjhWtTej6P78Ce4wvOgb-25">
          <mxGeometry relative="1" as="geometry">
            <mxPoint x="299.8223801065719" y="607.619893428064" as="targetPoint" />
          </mxGeometry>
        </mxCell>
        <mxCell id="cjhWtTej6P78Ce4wvOgb-41" value="Type == response" style="rhombus;whiteSpace=wrap;html=1;shadow=0;fontFamily=Helvetica;fontSize=12;align=center;strokeWidth=1;spacing=6;spacingTop=-4;fillColor=#fff2cc;strokeColor=#d6b656;" vertex="1" parent="WIyWlLk6GJQsqaUBKTNV-1">
          <mxGeometry x="372" y="437" width="90" height="80" as="geometry" />
        </mxCell>
        <mxCell id="cjhWtTej6P78Ce4wvOgb-63" style="edgeStyle=none;rounded=0;orthogonalLoop=1;jettySize=auto;html=1;exitX=0.5;exitY=1;exitDx=0;exitDy=0;shadow=1;strokeWidth=1;fontSize=17;startArrow=none;startFill=0;endArrow=block;endFill=0;labelBackgroundColor=none;endSize=8;" edge="1" parent="WIyWlLk6GJQsqaUBKTNV-1" source="cjhWtTej6P78Ce4wvOgb-42" target="cjhWtTej6P78Ce4wvOgb-43">
          <mxGeometry relative="1" as="geometry" />
        </mxCell>
        <mxCell id="cjhWtTej6P78Ce4wvOgb-42" value="&lt;div&gt;Client cache control &lt;br&gt;&lt;/div&gt;&lt;div&gt;&amp;gt; 0&lt;br&gt;&lt;/div&gt;" style="rhombus;whiteSpace=wrap;html=1;shadow=0;fontFamily=Helvetica;fontSize=12;align=center;strokeWidth=1;spacing=6;spacingTop=-4;fillColor=#ffe6cc;strokeColor=#d79b00;" vertex="1" parent="WIyWlLk6GJQsqaUBKTNV-1">
          <mxGeometry x="367" y="570" width="100" height="73" as="geometry" />
        </mxCell>
        <mxCell id="cjhWtTej6P78Ce4wvOgb-64" style="edgeStyle=none;rounded=0;orthogonalLoop=1;jettySize=auto;html=1;exitX=0.5;exitY=1;exitDx=0;exitDy=0;entryX=0.5;entryY=0;entryDx=0;entryDy=0;shadow=1;strokeWidth=1;fontSize=17;startArrow=none;startFill=0;endArrow=block;endFill=0;labelBackgroundColor=none;endSize=8;" edge="1" parent="WIyWlLk6GJQsqaUBKTNV-1" source="cjhWtTej6P78Ce4wvOgb-43" target="cjhWtTej6P78Ce4wvOgb-61">
          <mxGeometry relative="1" as="geometry" />
        </mxCell>
        <mxCell id="cjhWtTej6P78Ce4wvOgb-43" value="&lt;div&gt;Server cache control &lt;br&gt;&lt;/div&gt;&lt;div&gt;&amp;gt; 0&lt;br&gt;&lt;/div&gt;" style="rhombus;whiteSpace=wrap;html=1;shadow=0;fontFamily=Helvetica;fontSize=12;align=center;strokeWidth=1;spacing=6;spacingTop=-4;fillColor=#ffe6cc;strokeColor=#d79b00;" vertex="1" parent="WIyWlLk6GJQsqaUBKTNV-1">
          <mxGeometry x="367" y="670" width="100" height="70" as="geometry" />
        </mxCell>
        <mxCell id="cjhWtTej6P78Ce4wvOgb-44" value="T" style="text;html=1;strokeColor=none;fillColor=none;align=center;verticalAlign=middle;whiteSpace=wrap;rounded=0;fontSize=17;" vertex="1" parent="WIyWlLk6GJQsqaUBKTNV-1">
          <mxGeometry x="370" y="540" width="60" height="30" as="geometry" />
        </mxCell>
        <mxCell id="cjhWtTej6P78Ce4wvOgb-45" value="T" style="text;html=1;strokeColor=none;fillColor=none;align=center;verticalAlign=middle;whiteSpace=wrap;rounded=0;fontSize=17;" vertex="1" parent="WIyWlLk6GJQsqaUBKTNV-1">
          <mxGeometry x="354" y="640" width="60" height="30" as="geometry" />
        </mxCell>
        <mxCell id="cjhWtTej6P78Ce4wvOgb-52" value="F" style="text;html=1;align=center;verticalAlign=middle;resizable=0;points=[];autosize=1;strokeColor=none;fillColor=none;fontSize=17;" vertex="1" parent="WIyWlLk6GJQsqaUBKTNV-1">
          <mxGeometry x="462" y="437" width="30" height="30" as="geometry" />
        </mxCell>
        <mxCell id="cjhWtTej6P78Ce4wvOgb-58" style="edgeStyle=orthogonalEdgeStyle;rounded=0;orthogonalLoop=1;jettySize=auto;html=1;shadow=1;fontSize=17;entryX=0;entryY=0.5;entryDx=0;entryDy=0;labelBackgroundColor=none;endArrow=block;endFill=0;endSize=8;strokeWidth=1;exitX=1;exitY=0.5;exitDx=0;exitDy=0;" edge="1" target="cjhWtTej6P78Ce4wvOgb-60" parent="WIyWlLk6GJQsqaUBKTNV-1" source="cjhWtTej6P78Ce4wvOgb-41">
          <mxGeometry relative="1" as="geometry">
            <mxPoint x="470" y="478" as="sourcePoint" />
            <mxPoint x="474" y="477" as="targetPoint" />
            <Array as="points">
              <mxPoint x="462" y="478" />
            </Array>
          </mxGeometry>
        </mxCell>
        <mxCell id="cjhWtTej6P78Ce4wvOgb-60" value="&lt;b&gt;ERROR&lt;/b&gt;" style="rounded=1;whiteSpace=wrap;html=1;fontSize=12;glass=0;strokeWidth=1;shadow=0;fillColor=#f8cecc;strokeColor=#b85450;" vertex="1" parent="WIyWlLk6GJQsqaUBKTNV-1">
          <mxGeometry x="509" y="458" width="120" height="40" as="geometry" />
        </mxCell>
        <mxCell id="cjhWtTej6P78Ce4wvOgb-69" style="edgeStyle=none;rounded=1;orthogonalLoop=1;jettySize=auto;html=1;exitX=0.5;exitY=1;exitDx=0;exitDy=0;shadow=1;strokeWidth=1;fontSize=17;startArrow=none;startFill=0;endArrow=block;endFill=1;" edge="1" parent="WIyWlLk6GJQsqaUBKTNV-1" source="cjhWtTej6P78Ce4wvOgb-61">
          <mxGeometry relative="1" as="geometry">
            <mxPoint x="417" y="815" as="targetPoint" />
          </mxGeometry>
        </mxCell>
        <mxCell id="cjhWtTej6P78Ce4wvOgb-71" style="edgeStyle=none;rounded=0;orthogonalLoop=1;jettySize=auto;html=1;exitX=0.5;exitY=1;exitDx=0;exitDy=0;shadow=1;strokeWidth=1;fontSize=17;startArrow=none;startFill=0;endArrow=block;endFill=0;labelBackgroundColor=none;endSize=8;" edge="1" parent="WIyWlLk6GJQsqaUBKTNV-1" source="cjhWtTej6P78Ce4wvOgb-61" target="cjhWtTej6P78Ce4wvOgb-70">
          <mxGeometry relative="1" as="geometry" />
        </mxCell>
        <mxCell id="cjhWtTej6P78Ce4wvOgb-61" value="&lt;div&gt;C flag&lt;/div&gt;&lt;div&gt;&lt;div&gt; is not 0&lt;br&gt;&lt;/div&gt;&lt;/div&gt;" style="rhombus;whiteSpace=wrap;html=1;shadow=0;fontFamily=Helvetica;fontSize=12;align=center;strokeWidth=1;spacing=6;spacingTop=-4;fillColor=#ffe6cc;strokeColor=#d79b00;" vertex="1" parent="WIyWlLk6GJQsqaUBKTNV-1">
          <mxGeometry x="367" y="760" width="100" height="70" as="geometry" />
        </mxCell>
        <mxCell id="cjhWtTej6P78Ce4wvOgb-65" value="T" style="text;html=1;strokeColor=none;fillColor=none;align=center;verticalAlign=middle;whiteSpace=wrap;rounded=0;fontSize=17;" vertex="1" parent="WIyWlLk6GJQsqaUBKTNV-1">
          <mxGeometry x="354" y="720" width="60" height="50" as="geometry" />
        </mxCell>
        <mxCell id="cjhWtTej6P78Ce4wvOgb-70" value="&lt;b&gt;Save in cache&lt;br&gt;&lt;/b&gt;" style="rounded=1;whiteSpace=wrap;html=1;fontSize=12;glass=0;strokeWidth=1;shadow=0;fillColor=#dae8fc;strokeColor=#6c8ebf;" vertex="1" parent="WIyWlLk6GJQsqaUBKTNV-1">
          <mxGeometry x="357" y="860" width="120" height="40" as="geometry" />
        </mxCell>
      </root>
    </mxGraphModel>
  </diagram>
</mxfile>
